<?xml version="1.0" encoding="iso-8859-1"?>
<!-- Generator: Adobe Illustrator 19.0.0, SVG Export Plug-In . SVG Version: 6.00 Build 0)  -->
<svg xmlns="http://www.w3.org/2000/svg" xmlns:xlink="http://www.w3.org/1999/xlink" version="1.1" id="Capa_1" x="0px" y="0px" viewBox="0 0 512.002 512.002" style="enable-background:new 0 0 512.002 512.002;" xml:space="preserve" width="512px" height="512px">
<g>
	<g>
		<path d="M396.001,132.002h-10v-56c0-5.523-4.478-10-10-10h-96c-5.523,0-10,4.477-10,10v13.563h-28V76.002c0-5.523-4.477-10-10-10    h-38V10c0-5.523-4.477-10-10-10h-48c-5.523,0-10,4.477-10,10v122.002h-10c-5.523,0-10,4.477-10,10v360c0,5.523,4.477,10,10,10h280    c5.522,0,10-4.477,10-10v-360C406.001,136.479,401.523,132.002,396.001,132.002z M338.001,86.002h28v46h-10h-18V86.002z     M290.001,86.002h28v46h-28V86.002z M242.001,109.564c0,0,28,0,28,0v22.438h-28V109.564z M194.001,86.002h28v46h-28V86.002z     M344.28,152.002c-4.127,11.639-15.243,20-28.279,20h-120c-13.036,0-24.152-8.361-28.28-20H344.28z M146.001,20h28v112.002h-28V20    z M386.001,492.002h-260V336.888l130-75.056l130,75.056V492.002z M386.001,313.794l-125-72.169    c-0.077-0.044-0.156-0.078-0.234-0.12c-0.18-0.097-0.359-0.192-0.544-0.278c-0.14-0.065-0.28-0.123-0.421-0.181    c-0.152-0.063-0.305-0.125-0.461-0.18c-0.169-0.061-0.339-0.112-0.51-0.163c-0.134-0.04-0.268-0.079-0.403-0.113    c-0.184-0.046-0.367-0.085-0.552-0.12c-0.132-0.025-0.265-0.05-0.398-0.069c-0.181-0.027-0.362-0.048-0.543-0.065    c-0.147-0.014-0.293-0.025-0.44-0.033c-0.164-0.008-0.328-0.011-0.492-0.011c-0.167-0.001-0.334,0.003-0.502,0.011    c-0.144,0.007-0.287,0.019-0.43,0.032c-0.184,0.017-0.367,0.038-0.551,0.065c-0.131,0.02-0.26,0.043-0.39,0.068    c-0.188,0.036-0.374,0.075-0.561,0.122c-0.132,0.033-0.263,0.071-0.394,0.109c-0.174,0.052-0.347,0.105-0.519,0.166    c-0.152,0.054-0.301,0.115-0.45,0.176c-0.144,0.06-0.288,0.118-0.431,0.185c-0.18,0.084-0.355,0.177-0.531,0.272    c-0.08,0.044-0.164,0.079-0.244,0.125l-125,72.169v-161.79h21.005c4.647,22.794,24.85,40,48.996,40h120    c24.146,0,44.35-17.206,48.995-40h21.005V313.794z" fill="#FFFFFF"/>
	</g>
</g>
<g>
	<g>
		<path d="M221.236,451.815H221c-5.523,0-10,4.477-10,10s4.477,10,10,10h0.236c5.523,0,10-4.477,10-10    C231.236,456.293,226.759,451.815,221.236,451.815z" fill="#FFFFFF"/>
	</g>
</g>
<g>
	<g>
		<path d="M291.001,451.814h-41.034c-5.523,0-10,4.477-10,10s4.477,10,10,10h41.034c5.522,0,10-4.477,10-10    S296.523,451.814,291.001,451.814z" fill="#FFFFFF"/>
	</g>
</g>
<g>
</g>
<g>
</g>
<g>
</g>
<g>
</g>
<g>
</g>
<g>
</g>
<g>
</g>
<g>
</g>
<g>
</g>
<g>
</g>
<g>
</g>
<g>
</g>
<g>
</g>
<g>
</g>
<g>
</g>
</svg>
